<svg width="640" height="640" viewBox="0 0 640 640" fill="none" xmlns="http://www.w3.org/2000/svg">
<path d="M564.435 189.316V478.995L313.566 623.833L62.6968 478.995V189.316L313.566 44.476L564.435 189.316Z" stroke="#7950F2" stroke-width="28"/>
<path d="M312.065 101.603C312.936 101.101 313.996 101.069 314.89 101.509L315.065 101.603L514.212 216.58C515.14 217.116 515.712 218.107 515.712 219.179V449.133C515.712 450.137 515.209 451.071 514.382 451.625L514.212 451.73L315.065 566.708C314.195 567.21 313.136 567.242 312.242 566.803L312.065 566.708L112.92 451.73C111.992 451.194 111.42 450.204 111.42 449.133V219.179C111.42 218.174 111.922 217.241 112.75 216.686L112.92 216.58L312.065 101.603Z" stroke="#7950F2" stroke-width="14"/>
<path d="M311.637 153.078C312.507 152.576 313.566 152.544 314.46 152.983L314.637 153.078L469.576 242.532C470.504 243.068 471.076 244.058 471.076 245.13V424.039C471.076 425.044 470.574 425.977 469.746 426.531L469.576 426.637L314.637 516.092C313.767 516.594 312.707 516.625 311.813 516.185L311.637 516.092L156.698 426.637C155.769 426.101 155.198 425.111 155.198 424.039V245.13C155.198 244.125 155.7 243.192 156.528 242.637L156.698 242.532L311.637 153.078Z" stroke="#7950F2" stroke-width="14"/>
<path d="M311.636 203.695C312.507 203.192 313.567 203.16 314.461 203.6L314.636 203.695L425.741 267.84C426.669 268.376 427.241 269.367 427.241 270.439V398.731C427.241 399.735 426.738 400.669 425.911 401.223L425.741 401.328L314.636 465.475C313.766 465.977 312.707 466.008 311.813 465.569L311.636 465.475L200.533 401.328C199.605 400.792 199.033 399.802 199.033 398.731V270.439C199.033 269.434 199.535 268.501 200.363 267.946L200.533 267.84L311.636 203.695Z" stroke="#7950F2" stroke-width="14"/>
<circle cx="84.0751" cy="98.6595" r="17.5161" fill="#7950F2" stroke="#7950F2"/>
<circle cx="313.137" cy="96.9437" r="17.5161" fill="#7950F2" stroke="#7950F2"/>
<circle cx="313.137" cy="199.893" r="17.5161" fill="#7950F2" stroke="#7950F2"/>
<circle cx="313.137" cy="203.324" r="17.5161" fill="#7950F2" stroke="#7950F2"/>
<circle cx="187.882" cy="221.34" r="17.5161" fill="#7950F2" stroke="#7950F2"/>
<circle cx="112.386" cy="216.193" r="17.5161" fill="#7950F2" stroke="#7950F2"/>
<circle cx="111.528" cy="448.686" r="17.5161" fill="#7950F2" stroke="#7950F2"/>
<circle cx="61.7694" cy="547.346" r="17.5161" fill="#7950F2" stroke="#7950F2"/>
<circle cx="118.82" cy="565.791" r="14.5134" fill="#7950F2" stroke="#7950F2"/>
<circle cx="15.0134" cy="304.129" r="14.5134" fill="#7950F2" stroke="#7950F2"/>
<circle cx="177.158" cy="65.63" r="14.5134" fill="#7950F2" stroke="#7950F2"/>
<circle cx="419.088" cy="15.0134" r="14.5134" fill="#7950F2" stroke="#7950F2"/>
<circle cx="607.828" cy="160" r="14.5134" fill="#7950F2" stroke="#7950F2"/>
<circle cx="614.692" cy="527.185" r="14.5134" fill="#7950F2" stroke="#7950F2"/>
<circle cx="184.45" cy="439.249" r="17.5161" fill="#7950F2" stroke="#7950F2"/>
<circle cx="155.281" cy="368.901" r="17.5161" fill="#7950F2" stroke="#7950F2"/>
<circle cx="197.319" cy="332.869" r="17.5161" fill="#7950F2" stroke="#7950F2"/>
<circle cx="313.137" cy="461.555" r="17.5161" fill="#7950F2" stroke="#7950F2"/>
<circle cx="313.137" cy="464.987" r="17.5161" fill="#7950F2" stroke="#7950F2"/>
<circle cx="362.038" cy="489.008" r="17.5161" fill="#7950F2" stroke="#7950F2"/>
<circle cx="514.745" cy="449.544" r="17.5161" fill="#7950F2" stroke="#7950F2"/>
<circle cx="428.096" cy="331.153" r="17.5161" fill="#7950F2" stroke="#7950F2"/>
<circle cx="474.424" cy="283.968" r="17.5161" fill="#7950F2" stroke="#7950F2"/>
<circle cx="514.745" cy="218.767" r="17.5161" fill="#7950F2" stroke="#7950F2"/>
<circle cx="621.984" cy="233.351" r="17.5161" fill="#7950F2" stroke="#7950F2"/>
<circle cx="385.201" cy="188.74" r="17.5161" fill="#7950F2" stroke="#7950F2"/>
<line x1="91.0231" y1="108.591" x2="111.493" y2="145.062" stroke="#7950F2" stroke-width="12"/>
<line x1="63.3083" y1="543.761" x2="84.202" y2="507.531" stroke="#7950F2" stroke-width="12"/>
<circle cx="487.335" cy="584.745" r="17.5161" transform="rotate(-61.7344 487.335 584.745)" fill="#7950F2" stroke="#7950F2"/>
<line x1="485.778" y1="584.967" x2="460.791" y2="543.931" stroke="#7950F2" stroke-width="12"/>
<line x1="625.417" y1="234.204" x2="577.373" y2="234.204" stroke="#7950F2" stroke-width="12"/>
<path d="M250.509 391.197L376.269 277.962" stroke="#7950F2" stroke-width="24" stroke-linecap="round"/>
<path d="M376.269 391.197L250.509 277.962" stroke="#7950F2" stroke-width="24" stroke-linecap="round"/>
</svg>
